<svg width="238.988" height="237.5" version="1.1" xmlns="http://www.w3.org/2000/svg">
  <polyline points="118.8,115.6 119.3,115.5 119.7,115.1 119.9,114.5 119.8,113.8 119.4,113.1 118.8,112.5 117.8,112.1 116.7,112 115.4,112.3 114.2,113 113.2,114.1 112.5,115.6 112.2,117.4 112.4,119.3 113.2,121.1 114.6,122.8 116.5,124.2 118.8,125 121.3,125.2 124,124.6 126.5,123.4 128.7,121.4 130.3,118.7 131.2,115.6 131.3,112.3 130.5,108.9 128.7,105.7 126,103 122.7,101 118.8,100 114.6,100 110.4,101.2 106.6,103.5 103.4,106.8 101.1,110.9 100,115.6 100.1,120.6 101.6,125.5 104.4,130 108.3,133.7 113.2,136.3 118.7,137.5 124.5,137.3 130.2,135.5 135.3,132.2 139.5,127.6 142.4,122 143.8,115.6 143.4,109 141.3,102.6 137.5,96.84 132.3,92.17 125.9,88.96 118.8,87.5 111.3,87.96 104.2,90.37 97.76,94.63 92.59,100.5 89.07,107.7 87.5,115.6 88.06,123.8 90.78,131.8 95.55,138.8 102.1,144.5 110,148.3 118.8,150 127.8,149.3 136.5,146.3 144.2,141 150.3,133.9 154.5,125.2 156.2,115.6 155.5,105.8 152.1,96.35 146.4,88 138.5,81.34 129.1,76.89 118.7,75 108.1,75.88 97.92,79.54 88.92,85.79 81.76,94.27 76.99,104.4 75,115.6 75.99,127.1 79.96,138 86.71,147.7 95.83,155.3 106.8,160.4 118.8,162.5 131,161.4 142.7,157.1 153,149.9 161.1,140.1 166.5,128.4 168.8,115.6 167.5,102.5 163,90.1 155.2,79.16 144.8,70.52 132.4,64.81 118.7,62.5 104.9,63.81 91.67,68.72 80.08,76.96 70.94,88.02 64.92,101.2 62.5,115.6 63.91,130.3 69.13,144.3 77.87,156.5 89.58,166.1 103.5,172.5 118.8,175 134.3,173.5 149,167.9 161.8,158.7 172,146.4 178.6,131.7 181.2,115.6 179.6,99.31 173.8,83.85 164,70.33 151,59.69 135.6,52.74 118.7,50 101.6,51.73 85.42,57.89 71.24,68.12 60.11,81.77 52.85,97.97 50,115.6 51.84,133.6 58.31,150.5 69.03,165.3 83.33,177 100.3,184.5 118.7,187.5 137.5,185.6 155.2,178.8 170.7,167.6 182.8,152.6 190.7,134.9 193.8,115.6 191.7,96.08 184.6,77.6 172.9,61.49 157.3,48.87 138.8,40.67 118.7,37.5 98.39,39.66 79.17,47.06 62.4,59.28 49.29,75.52 40.77,94.73 37.5,115.6 39.77,136.8 47.48,156.8 60.19,174.2 77.08,187.8 97.05,196.6 118.7,200 140.7,197.6 161.5,189.6 179.5,176.4 193.6,158.9 202.8,138.1 206.2,115.6 203.8,92.84 195.4,71.35 181.7,52.65 163.5,38.04 142.1,28.59 118.8,25 95.16,27.58 72.92,36.24 53.56,50.44 38.46,69.27 28.7,91.5 25,115.6 27.69,140 36.66,163 51.35,183 70.83,198.6 93.81,208.7 118.7,212.5 144,209.7 167.7,200.4 188.4,185.2 204.5,165.1 214.8,141.4 218.8,115.6 215.8,89.61 206.3,65.1 190.6,43.81 169.8,27.22 145.3,16.52 118.8,12.5 91.92,15.51 66.67,25.41 44.72,41.6 27.64,63.02 16.62,88.26 12.5,115.6 15.62,143.3 25.83,169.3 42.52,191.9 64.58,209.4 90.58,220.8 118.7,225 147.2,221.8 174,211.2 197.2,194.1 215.3,171.4 226.9,144.6 231.2,115.6 227.9,86.37 217.1,58.85 199.4,34.97 176,16.39 148.5,4.443 118.8,0 88.69,3.437 60.42,14.59 35.89,32.76 16.81,56.77 4.549,85.03 0,115.6 3.543,146.5 15.01,175.5 33.68,200.7 58.33,220.3 87.34,232.8 118.7,237.5 150.4,233.9 180.2,222.1 206,202.9 226.1,177.6 239,147.8" stroke="black" stroke-width="1" />
</svg>
